<?xml version="1.0" encoding="UTF-8"?><svg id="Calque_1" xmlns="http://www.w3.org/2000/svg" viewBox="0 0 790.02 271.44"><defs><style>.cls-1{fill:#fff;stroke-width:0px;}</style></defs><path class="cls-1" d="m292.93,185.64c-5.04-4.81-13.86-9.96-28.52-9.96-9.85,0-21.65,2.29-31.38,11.57-5.49,5.23-9.9,12.52-11.7,21.61-.53,2.7-2.81,4.69-5.56,4.69h-20.42c-1.79,0-3.25,1.45-3.25,3.25,0,.74.26,1.42.68,1.96.27-.2.59-.34.95-.34h33.3c.9,0,1.62.73,1.62,1.62s-.73,1.62-1.62,1.62h-3.97c-1.29,0-2.28,1.14-2.12,2.42,0,.02,0,.03,0,.05.17,1.28-.81,2.4-2.1,2.4h-1.16c-1.79,0-3.25,1.45-3.25,3.25,0,.74.26,1.42.68,1.96.27-.2.59-.34.95-.34h16.96c.25-.16.53-.28.85-.28h0c3.82,0,6.7-3.63,5.63-7.3-.62-2.13-.97-4.48-.97-7.03,0-6.41,2.52-12.83,6.99-17.52,4.58-4.81,10.65-7.33,18.21-7.33,4.7,0,10.77,1.03,15.8,5.96.87.85,1.59,1.75,2.23,2.67h-18.33c-1.79,0-3.25,1.45-3.25,3.25,0,.74.26,1.42.68,1.96.27-.2.59-.34.95-.34h28.44c.9,0,1.62.73,1.62,1.62s-.73,1.62-1.62,1.62h-2.6c-1.3,0-2.31,1.12-2.18,2.42,0,.02,0,.03,0,.05.12,1.29-.91,2.4-2.21,2.4h-6.84c-1.79,0-3.25,1.45-3.25,3.25,0,.74.26,1.42.68,1.96.27-.2.59-.34.95-.34h28.44s.06.02.09.02c.22-1.89.38-3.79.38-5.65,0-11.22-4.24-20.84-10.77-27.14Z"/><path class="cls-1" d="m178.1,33.74h58.63c.9,0,1.62.73,1.62,1.62s-.73,1.62-1.62,1.62h-20.13c-.96,0-1.88.34-2.59.98-.3.27-.59.55-.89.83-.63.6-1.24,1.22-1.85,1.85-.73.76-1.73,1.21-2.79,1.21h-15.77c-1.79,0-3.25,1.45-3.25,3.25,0,.74.26,1.42.68,1.96.27-.2.59-.34.95-.34h32.94c.9,0,1.62.73,1.62,1.62s-.73,1.62-1.62,1.62h-18.16c-1.31,0-2.55.65-3.25,1.76-1.86,2.95-3.53,6.1-4.98,9.47h1.74c.9,0,1.62.73,1.62,1.62s-.73,1.62-1.62,1.62h-.29c-1.63,0-3.12,1.02-3.63,2.57-2.38,7.2-3.77,15.19-3.77,23.96,0,4.99.52,9.63,1.43,13.93.51,2.41-1.27,4.69-3.74,4.69h-21.27c-1.79,0-3.25,1.45-3.25,3.25,0,.74.26,1.42.68,1.96.27-.2.59-.34.95-.34h46.84c.9,0,1.62.73,1.62,1.62s-.73,1.62-1.62,1.62h-13.34c-1.24,0-2.08,1.3-1.53,2.41,0,.02.02.03.02.05.55,1.11-.29,2.41-1.53,2.41h-15.85c-1.79,0-3.25,1.45-3.25,3.25,0,.74.26,1.42.68,1.96.27-.2.59-.34.95-.34h46.84c.9,0,1.62.73,1.62,1.62s-.73,1.62-1.62,1.62h-13.94c-2.9,0-4.45,3.51-2.43,5.59.02.02.03.03.05.05,15.38,15.58,33.29,18.5,49.45,18.5s37.38-3.31,53.74-20.05c3.31-3.4,6.18-7.16,8.65-11.17,1.58-2.58-.24-5.9-3.26-5.9h-3.61c-.9,0-1.62-.73-1.62-1.62s.73-1.62,1.62-1.62h9.05c1.56,0,3-.93,3.57-2.38,3.81-9.63,5.66-19.97,5.66-29.88,0-18.85-7.03-35.04-17.9-45.75-.95-.38-1.79-.72-2.74-1.1h-18.34c-.9,0-1.62-.73-1.62-1.62s.73-1.62,1.62-1.62h1.52c4.22,0,5.36-5.8,1.45-7.41-7.99-3.3-18.09-5.57-30.77-5.57s-26.11,2.07-39.16,9.26c-.56.31-1.18.48-1.82.48h-45.76c-1.79,0-3.25,1.45-3.25,3.25,0,.74.26,1.42.68,1.96.27-.2.59-.34.95-.34Zm91.51,109.97h-14.28c-.9,0-1.62-.73-1.62-1.62s.73-1.62,1.62-1.62h14.28c.9,0,1.62.73,1.62,1.62s-.73,1.62-1.62,1.62Zm22.55-86.81c.09.09.18.18.27.27,2.39,2.39.59,6.5-2.79,6.5h-18.02c-1.79,0-3.25,1.45-3.25,3.25,0,.74.26,1.42.68,1.96.27-.2.59-.34.95-.34h33.3c.9,0,1.62.73,1.62,1.62s-.73,1.62-1.62,1.62h-2.43s0,.03.01.05c.68,2.43-1.2,4.82-3.72,4.82h-51.71c-1.79,0-3.25,1.45-3.25,3.25h0c0,.74.26,1.42.68,1.96.27-.2.59-.34.95-.34h72.45c.9,0,1.62.73,1.62,1.62s-.73,1.62-1.62,1.62h-10.17c-1.99,0-3.66,1.52-3.81,3.5-.91,11.62-5.61,21.36-11.89,27.82-9.54,9.73-20.25,11.1-29.01,11.1s-19.66-1.95-28.43-10.9c-4.94-4.94-8.79-12.13-10.04-21.08-.31-.3-.52-.71-.52-1.18,0-.3.1-.56.24-.81-.13-1.36-.2-2.76-.2-4.2,0-.73.02-1.46.07-2.18.14-2.25-1.57-4.18-3.83-4.18h-7.65c-.9,0-1.62-.73-1.62-1.62s.73-1.62,1.62-1.62h9.6c1.67,0,3.18-1.06,3.65-2.66,1.92-6.5,5.32-12.57,10.03-17.52,7.79-8.18,18.11-12.46,30.96-12.46,7.98,0,18.3,1.75,26.87,10.12Z"/><path class="cls-1" d="m153.53,202.62c-.21.55-.41,1.1-.59,1.67-.55,1.65-2.08,2.77-3.82,2.77h-48.62c-1.79,0-3.25,1.45-3.25,3.25,0,.74.26,1.42.68,1.96.27-.2.59-.34.95-.34h58.63c.9,0,1.62.73,1.62,1.62s-.73,1.62-1.62,1.62h-2.88c-2.18,0-4.03,1.74-4.03,3.92,0,.01,0,.03,0,.04,0,.32.04.6.05.91h-37.15c-1.79,0-3.25,1.45-3.25,3.25,0,.74.26,1.42.68,1.96.27-.2.59-.34.95-.34h53c2.41,0,4.26-2.1,3.99-4.5-.11-.91-.16-1.83-.16-2.77,0-3.85.88-8.02,2.73-11.84,1.29-2.68-.64-5.78-3.61-5.78h-10.49c-1.67,0-3.18,1.03-3.78,2.6Z"/><path class="cls-1" d="m214.1,188.82l.29-2.49c.37-3.16-1.43-6.14-4.38-7.33-3.79-1.53-9.32-3.05-16.7-3.05-5.81,0-10.93.98-15.43,2.56-.75.26-1.53.41-2.32.41h-37.51c-1.79,0-3.25,1.45-3.25,3.25,0,.74.26,1.42.68,1.96.27-.2.59-.34.95-.34h41.05c.9,0,1.62.73,1.62,1.62s-.73,1.62-1.62,1.62h-10.88c-1.82.8-3.42,1.5-5.24,2.3-.02.02-.03.04-.05.06-1.36,1.56-3.3,2.51-5.37,2.51h-4.9c-1.79,0-3.25,1.45-3.25,3.25,0,.74.26,1.42.68,1.96.27-.2.59-.34.95-.34h27.15c1.28,0,2.57-.29,3.66-.96,3.86-2.38,8.3-3.37,13.42-3.37,4.42,0,8.02.86,10.93,2.09,4.23,1.78,8.98-1.14,9.51-5.71Z"/><path class="cls-1" d="m382.74,178.59h-12.05c-1.4,0-2.58,1.04-2.75,2.43l-1.96,16.11c-.17,1.39-1.35,2.43-2.75,2.43h-16.6c-1.79,0-3.25,1.45-3.25,3.25,0,.74.26,1.42.68,1.96.27-.2.59-.34-1.34-.34h27.8c3.19,0,3.91.73,3.91,1.62s-.73,1.62-1.62,1.62h-5.65c-1.4,0-2.58,1.04-2.75,2.43h0c-.17,1.39-1.35,2.43-2.75,2.43h-2.04c-1.79,0-3.25,1.45-3.25,3.25,0,.74.26,1.42.68,1.96.27-.2.59-.34.95-.34h20.63c1.4,0,2.58-1.04,2.75-2.43l4.12-33.29c.2-1.65-1.08-3.11-2.75-3.11Z"/><path class="cls-1" d="m554.72,178.92c0-.12.04-.22.07-.33h-9.71c-.93,0-1.72.7-1.83,1.62h0c-.11.93-.9,1.62-1.83,1.62h-11.6c-1.79,0-3.25,1.45-3.25,3.25,0,.74.26,1.42.68,1.96.27-.2.59-.34.95-.34h21.66c.9,0,1.62.73,1.62,1.62s-.73,1.62-1.62,1.62h-5.11c-1.53,0-2.82,1.14-3.01,2.66l-.13,1.05c-.1.84-.57,1.56-1.15,2.17-.55.58-.89,1.36-.89,2.23,0,.74.26,1.42.68,1.96.27-.2.58-.34.94-.34h14.64c1.53,0,2.82-1.14,3.01-2.66l1.61-13.08c.22-1.81-1.19-3.4-3.01-3.4h-1.06c-.9,0-1.62-.73-1.62-1.62Z"/><path class="cls-1" d="m526.28,32.46h33.3c.9,0,1.62.73,1.62,1.62s-.73,1.62-1.62,1.62h-16.19c-.8,0-1.56.35-2.09.95l-31.34,35.84c-1.64,1.87-4.71.5-4.41-1.97h0c.18-1.5-.99-2.83-2.51-2.83h-27.04s-.09-.02-.13-.03l-1.96,15.93c-.17,1.39-1.35,2.43-2.75,2.43h-67.18c-1.79,0-3.25,1.45-3.25,3.25,0,.74.26,1.42.68,1.96.27-.2.59-.34.95-.34h83.11c.9,0,1.62.73,1.62,1.62s-.73,1.62-1.62,1.62h-10.4c-1.4,0-2.58,1.04-2.75,2.43h0c-.17,1.39-1.35,2.43-2.75,2.43h-52.6c-1.79,0-3.25,1.45-3.25,3.25,0,.74.26,1.42.68,1.96.27-.2.59-.34.95-.34h83.11c.9,0,1.62.73,1.62,1.62s-.73,1.62-1.62,1.62h-24.98c-1.4,0-2.58,1.04-2.75,2.43l-2.27,18.44c-.17,1.39-1.35,2.43-2.75,2.43h-5.74c-1.79,0-3.25,1.45-3.25,3.25,0,.74.26,1.42.68,1.96.27-.2.59-.34.95-.34h15.03c.9,0,1.62.73,1.62,1.62s-.73,1.62-1.62,1.62h-3.76c-1.4,0-2.58,1.04-2.75,2.43l-1.24,10.11c-.2,1.65,1.09,3.11,2.75,3.11h24.39c1.4,0,2.58-1.05,2.75-2.44l5.99-48.93c.31-2.55,3.63-3.34,5.06-1.2l34.16,51.33c.51.77,1.38,1.24,2.31,1.24h30.88c2.26,0,3.57-2.56,2.25-4.39l-11.51-16.02c-.52-.73-1.36-1.16-2.25-1.16h-4.5c-.9,0-1.62-.73-1.62-1.62s.73-1.62,1.62-1.62h3.59l-6.16-8.58c-.52-.73-1.36-1.16-2.25-1.16h-8.16c-.9,0-1.62-.73-1.62-1.62s.73-1.62,1.62-1.62h1.84c2.26,0,3.57-2.56,2.25-4.39l-16.49-22.97c-.76-1.06-.68-2.5.19-3.47l29.06-32.25c1.61-1.78.34-4.63-2.06-4.63h-20.46c-.9,0-1.62-.73-1.62-1.62s.73-1.62,1.62-1.62h28.38c.79,0,1.53-.33,2.06-.92l14.01-15.55c1.61-1.78.34-4.63-2.06-4.63h-28.34c-.8,0-1.56.35-2.09.95l-1.18,1.35c-.53.6-1.29.95-2.09.95h-20.07c-1.79,0-3.25,1.45-3.25,3.25,0,.74.26,1.42.68,1.96.27-.2.59-.34.95-.34Zm-39.93,119.08h-15.03c-.9,0-1.62-.73-1.62-1.62s.73-1.62,1.62-1.62h15.03c.9,0,1.62.73,1.62,1.62s-.73,1.62-1.62,1.62Z"/><path class="cls-1" d="m593.64,32.46h22.82c.9,0,1.62.73,1.62,1.62s-.73,1.62-1.62,1.62h-3.77c-1.4,0-2.58,1.04-2.75,2.43l-.3,2.43h-1.39c-1.79,0-3.25,1.45-3.25,3.25,0,.74.26,1.42.68,1.96.27-.2.59-.34.95-.34h22.82c.9,0,1.62.73,1.62,1.62s-.73,1.62-1.62,1.62h-18.35c-1.4,0-2.58,1.04-2.75,2.43l-2.98,24.24c-.17,1.39-1.35,2.43-2.75,2.43h-42.91c-1.79,0-3.25,1.45-3.25,3.25,0,.74.26,1.42.68,1.96.27-.2.59-.34.95-.34h65.21c.9,0,1.62.73,1.62,1.62s-.73,1.62-1.62,1.62h-16.76c-1.4,0-2.58,1.04-2.75,2.43h0c-.17,1.39-1.35,2.43-2.75,2.43h-28.33c-1.79,0-3.25,1.45-3.25,3.25,0,.74.26,1.42.68,1.96.27-.2.59-.34.95-.34h53.73c.9,0,1.62.73,1.62,1.62s-.73,1.62-1.62,1.62h-19.87c-1.4,0-2.58,1.04-2.75,2.43l-2.72,22.09c-.17,1.39-1.35,2.43-2.75,2.43h-16.57c-1.79,0-3.25,1.45-3.25,3.25,0,.1.02.19.03.29h3.82c.48,0,.89.21,1.18.54.51.59,1.34.8,2.12.8h27.77c.9,0,1.62.73,1.62,1.62s-.73,1.62-1.62,1.62h-11.2c-1.4,0-2.58,1.04-2.75,2.43h0c-.17,1.39-1.35,2.43-2.75,2.43h-1.99c-1.79,0-3.25,1.45-3.25,3.25,0,.74.26,1.42.68,1.96.27-.2.59-.34.95-.34h33.3c.9,0,1.62.73,1.62,1.62s-.73,1.62-1.62,1.62h-25.78c-1.4,0-2.58,1.04-2.75,2.43l-.21,1.71c-.2,1.65,1.09,3.11,2.75,3.11h66.84c1.4,0,2.58-1.04,2.75-2.43l.78-6.3c.2-1.65-1.09-3.11-2.75-3.11h-9c-.9,0-1.62-.73-1.62-1.62s.73-1.62,1.62-1.62h10.09c1.4,0,2.58-1.04,2.75-2.43l.58-4.67c.2-1.65-1.09-3.11-2.75-3.11h-36.96c-1.66,0-2.95-1.46-2.75-3.11l2.83-23.27c.17-1.39,1.35-2.44,2.75-2.44h35.98c1.4,0,2.58-1.04,2.75-2.43l2.43-19.76c.2-1.65-1.09-3.11-2.75-3.11h-4.18c.13.23.22.48.22.76,0,.9-.73,1.62-1.62,1.62h-22.82c-.9,0-1.62-.73-1.62-1.62,0-.28.09-.53.22-.76h-4.8c-1.67,0-2.96-1.46-2.75-3.11l.54-4.37c.21-1.65-1.08-3.11-2.75-3.11h-4.11c-.9,0-1.62-.73-1.62-1.62s.73-1.62,1.62-1.62h5.2c1.4,0,2.58-1.04,2.75-2.43l.79-6.41c.17-1.39,1.35-2.43,2.75-2.43h37.54c1.4,0,2.58-1.04,2.75-2.43l2.56-20.8c.14-1.1-.72-2.07-1.83-2.07h-67.92c-.93,0-1.72.7-1.83,1.62h0c-.11.93-.9,1.62-1.83,1.62h-14.34c-1.79,0-3.25,1.45-3.25,3.25,0,.74.26,1.42.68,1.96.27-.2.59-.34.95-.34Z"/><path class="cls-1" d="m110.06,103.22h.16l30.17,49.29c.65,1.06,1.8,1.71,3.04,1.71h33.05l-1.34-2.11h-3.81c-.9,0-1.62-.73-1.62-1.62s.73-1.62,1.62-1.62h1.75l-5.13-8.08c-.65-1.03-1.79-1.66-3.01-1.66h-6.59c-.9,0-1.62-.73-1.62-1.62s.73-1.62,1.62-1.62h0c2.81,0,4.52-3.11,3.01-5.48l-15.73-24.79c-1.24-1.95-.34-4.6,1.86-5.29,5.82-1.83,11.65-5.05,16.14-9.38,5.98-5.98,10.11-14.83,10.65-25.92-1.43-1.5-2.2-2.31-3.62-3.82h-3.29c-.9,0-1.62-.73-1.62-1.62s.73-1.62,1.62-1.62h3c2.06,0,3.61-1.86,3.24-3.88h0c-.28-1.52-1.62-2.61-3.16-2.61h-11.43c-.9,0-1.62-.73-1.62-1.62s.73-1.62,1.62-1.62h7.74c2.65,0,4.42-2.82,3.2-5.17-1.51-2.92-3.26-5.24-4.95-7.01-9.73-10.51-22-11.68-34.46-11.68h-39.06c-.93,0-1.72.7-1.83,1.62h0c-.11.93-.9,1.62-1.83,1.62h-47.21c-1.79,0-3.25,1.45-3.25,3.25,0,.74.26,1.42.68,1.96.27-.2.59-.34.95-.34h58.63c.9,0,1.62.73,1.62,1.62s-.73,1.62-1.62,1.62h-6.7c-1.4,0-2.58,1.04-2.75,2.43h0c-.17,1.39-1.35,2.43-2.75,2.43h-31.82c-1.79,0-3.25,1.45-3.25,3.25,0,.74.26,1.42.68,1.96.27-.2.59-.34.95-.34h58.63c.9,0,1.62.73,1.62,1.62s-.73,1.62-1.62,1.62h-20.58c-1.8,0-3.32,1.34-3.54,3.13l-3.54,28.78c-.22,1.79-1.74,3.13-3.54,3.13H12.09c-1.79,0-3.25,1.45-3.25,3.25,0,.74.26,1.42.68,1.96.27-.2.59-.34.95-.34h87.12c.9,0,1.62.73,1.62,1.62s-.73,1.62-1.62,1.62h-13.6c-1.4,0-2.58,1.04-2.75,2.43h0c-.17,1.39-1.35,2.43-2.75,2.43H25.08c-1.79,0-3.25,1.45-3.25,3.25,0,.74.26,1.42.68,1.96.27-.2.59-.34.95-.34h76.02c.9,0,1.62.73,1.62,1.62s-.73,1.62-1.62,1.62h-16.38c-1.8,0-3.32,1.34-3.54,3.13l-4.1,33.36c-.22,1.79-1.74,3.13-3.54,3.13h-11.79c-1.79,0-3.25,1.45-3.25,3.25,0,.74.26,1.42.68,1.96.27-.2.59-.34.95-.34h33.3c.9,0,1.62.73,1.62,1.62s-.73,1.62-1.62,1.62h-17.73l-.2,1.62h26.82c1.8,0,3.33-1.35,3.54-3.14l5.82-47.85Zm-9.05-34.67c-.9,0-1.62-.73-1.62-1.62s.73-1.62,1.62-1.62h10.53c1.8,0,3.32-1.34,3.54-3.12l1.42-11.34c.22-1.79,1.74-3.12,3.54-3.12h1.33c6.82,0,12.46.58,16.35,3.11,5.26,3.31,6.23,8.57,6.23,12.66,0,5.45-1.36,11.1-6.62,15.19-5.26,4.09-12.66,4.67-17.52,4.67h-7.4l.31-2.46c-.21-.27-.36-.6-.36-.97,0-.52.26-.96.64-1.26l.77-6.09c.27-2.13-1.39-4.01-3.54-4.01h-9.22Z"/><path class="cls-1" d="m328,27.25h80.27c.9,0,1.62.73,1.62,1.62s-.73,1.62-1.62,1.62h-25.45c-1.02,0-2.03.29-2.88.85-1.42.94-2.8,1.9-4.1,2.9-.93.71-2.04,1.12-3.21,1.12h-30.03c-1.79,0-3.25,1.45-3.25,3.25,0,.74.26,1.42.68,1.96.27-.2.59-.34.95-.34h80.27c.9,0,1.62.73,1.62,1.62s-.73,1.62-1.62,1.62h-52.45c-1.58,0-3.11.7-4.08,1.95-9.2,11.84-15.34,28-15.34,47.11,0,14.6,3.83,25.62,8.79,33.85,2.09,3.46-.46,7.86-4.5,7.86h-17.2c-1.79,0-3.25,1.45-3.25,3.25,0,.74.26,1.42.68,1.96.27-.2.59-.34.95-.34h43.94c.9,0,1.62.73,1.62,1.62s-.73,1.62-1.62,1.62h-6.21s.04.03.07.05c2.07,1.55,1.02,4.82-1.56,4.82h-21.63c-1.79,0-3.25,1.45-3.25,3.25,0,.74.26,1.42.68,1.96.27-.2.59-.34.95-.34h43.94c.36,0,.67.14.94.33.05-.06.11-.11.15-.17,5.68,1.58,12.24,2.57,19.79,2.57,13.94,0,23.56-3.37,28.86-5.74,1.67-.75,2.81-2.32,3.03-4.13h0c.37-3.11-2.05-5.85-5.19-5.85h-8.32c-.9,0-1.62-.73-1.62-1.62s.73-1.62,1.62-1.62h14.28c.11,0,.21.04.31.06l1.12-9.28c.5-4.15-3.85-7.21-7.55-5.27-6.01,3.16-13.22,5.41-21.48,5.41-11.88,0-21.61-4.28-27.45-10.12-5.84-5.84-10.12-15.77-10.12-26.67,0-5.73,1.16-11.87,3.56-17.67,1.42-3.44-1.25-7.21-4.97-7.21h-3.83c-.9,0-1.62-.73-1.62-1.62s.73-1.62,1.62-1.62h12.42c1.51,0,2.95-.66,3.93-1.8.19-.22.38-.43.57-.64,8.18-8.96,18.3-12.26,30.76-12.26,11.54,0,19.8,3.45,25.58,7.31,3.23,2.16,7.59.1,8.04-3.76l2.19-18.76c.25-2.17-.87-4.26-2.81-5.26-6.03-3.11-17.11-7.57-33.58-7.57-8.22,0-15.66,1.13-22.34,3.05-.45.13-.91.2-1.38.2h-68.68c-1.79,0-3.25,1.45-3.25,3.25,0,.74.26,1.42.68,1.96.27-.2.59-.34.95-.34Z"/><path class="cls-1" d="m463.01,51.46h33.3c.9,0,1.62.73,1.62,1.62s-.73,1.62-1.62,1.62h-16.54c-1.32,0-2.44.99-2.6,2.3l-.15,1.24c-.1.81-.62,1.47-1.29,1.95-.82.59-1.36,1.55-1.36,2.63,0,.74.27,1.41.7,1.95.27-.19.57-.33.93-.33h27.84c1.4,0,2.58-1.05,2.75-2.44l4.21-34.55c.2-1.65-1.09-3.11-2.75-3.11h-24.4c-1.4,0-2.58,1.04-2.75,2.43l-2.14,17.38c-.17,1.39-1.35,2.43-2.75,2.43h-11.37c-1.79,0-3.25,1.45-3.25,3.25,0,.74.26,1.42.68,1.96.27-.2.59-.34.95-.34Z"/><path class="cls-1" d="m540.47,202.77l-2.1,17.04c-.46,3.72-3.62,6.52-7.37,6.52h-11.32c-1.79,0-3.25,1.45-3.25,3.25,0,.74.26,1.42.68,1.96.27-.2.59-.34.95-.34h26.15c.9,0,1.62.73,1.62,1.62s-.73,1.62-1.62,1.62h-5.19c-1.4,0-2.58,1.04-2.75,2.43h0c-.17,1.39-1.35,2.43-2.75,2.43h-.86c-1.79,0-3.25,1.45-3.25,3.25,0,.74.26,1.42.68,1.96.27-.2.59-.34.95-.34h15.4c3.75,0,6.91-2.8,7.37-6.52l3.25-26.4c.54-4.43-2.91-8.33-7.37-8.33h-8.53c-.25,0-.48-.07-.69-.17Z"/><path class="cls-1" d="m533.52,250.33l-.15,1.18c-.23,1.9,1.25,3.57,3.16,3.57h11.22c1.61,0,2.96-1.2,3.16-2.79l.15-1.18c.23-1.9-1.25-3.57-3.16-3.57h-11.22c-1.61,0-2.96,1.2-3.16,2.79Z"/><polygon class="cls-1" points="633.65 250.6 633.11 254.98 650.75 254.98 651.28 250.6 633.65 250.6"/><path class="cls-1" d="m593.56,230.09c.37-3.03-2-5.7-5.05-5.7h-6.68c-.9,0-1.62-.73-1.62-1.62s.73-1.62,1.62-1.62h18.28c.9,0,1.62.73,1.62,1.62,0,.14-.05.26-.08.39h12.31c2.57,0,4.74-1.92,5.05-4.47l.58-4.71c.37-3.03-1.99-5.71-5.05-5.71h-12.54c-3.06,0-5.43-2.68-5.05-5.71l.57-4.6c.32-2.55,2.48-4.46,5.05-4.46h19.99c-.78-.11-1.4-.76-1.4-1.58,0-.9.73-1.62,1.62-1.62h.64l1.21-9.85c-.18.07-.36.11-.56.11h-14.28c-.9,0-1.62-.73-1.62-1.62,0-.12.04-.22.07-.33h-21.02c-2.57,0-4.74,1.92-5.05,4.47l-.89,7.22h2.33c.9,0,1.62.73,1.62,1.62s-.73,1.62-1.62,1.62h-2.73l-.65,5.29c-.31,2.55-2.48,4.47-5.05,4.47h-4.72c-1.79,0-3.25,1.45-3.25,3.25,0,.74.26,1.42.68,1.96.27-.2.59-.34.95-.34h18.28c.9,0,1.62.73,1.62,1.62s-.73,1.62-1.62,1.62h-3.93c-2.57,0-4.74,1.92-5.05,4.47l-3.06,24.91c-.31,2.55-2.48,4.47-5.05,4.47h-10.34c-.33,0-.65.06-.95.16.04.13.08.27.08.41h0c0,.9-.73,1.62-1.62,1.62h-.57c-.11.33-.19.68-.19,1.05h0c0,.74.26,1.42.68,1.96.27-.2.59-.34.95-.34h22c.9,0,1.62.73,1.62,1.62s-.73,1.62-1.62,1.62h-6.54l-.2,1.62h38.1c2.57,0,4.74-1.92,5.05-4.47l.58-4.71c.37-3.03-1.99-5.71-5.05-5.71h-13.93c-3.05,0-5.42-2.67-5.05-5.7l.52-4.31Z"/><path class="cls-1" d="m685.91,217.76c.23-.23.46-.48.69-.73,2.11-2.35.48-6.1-2.68-6.1h0c-.9,0-1.62-.73-1.62-1.62s.73-1.62,1.62-1.62h4.47c1.79,0,3.36-1.3,3.59-3.07.15-1.14.23-2.33.23-3.57,0-7.9-2.86-12.83-5.5-15.58-5.73-6.18-12.94-6.87-20.27-6.87h-22.3c-.93,0-1.72.7-1.83,1.62h0c-.11.93-.9,1.62-1.83,1.62h-6.3c-1.79,0-3.25,1.45-3.25,3.25,0,.74.26,1.42.68,1.96.27-.2.59-.34.95-.34h16.71c.9,0,1.62.73,1.62,1.62h0c0,.9-.73,1.62-1.62,1.62h-4.93c-1.83,0-3.38,1.37-3.6,3.19l-4.08,33.16c-.22,1.82-1.77,3.19-3.6,3.19h-12.84c-1.79,0-3.25,1.45-3.25,3.25,0,.74.26,1.42.68,1.96.27-.2.59-.34.95-.34h22.18c.9,0,1.62.73,1.62,1.62s-.73,1.62-1.62,1.62h-2.29c-1.83,0-3.38,1.37-3.6,3.19l-.21,1.68h-1.47c-1.79,0-3.25,1.45-3.25,3.25,0,.74.26,1.42.68,1.96.27-.2.59-.34.95-.34h16.91c1.84,0,3.38-1.37,3.61-3.19l1.09-8.95c.42-3.42,4.91-4.39,6.7-1.46l7.03,11.49h-3.05c-1.79,0-3.25,1.45-3.25,3.25,0,.74.26,1.42.68,1.96.27-.2.59-.34.95-.34h19.66c.9,0,1.62.73,1.62,1.62s-.73,1.62-1.62,1.62h-10.02l.99,1.62h14.01c2.86,0,4.6-3.16,3.07-5.58l-13.58-21.4c-1.23-1.94-.36-4.49,1.78-5.33,2.84-1.12,5.59-2.79,7.78-4.91Zm-15.46-7.22c-3.09,2.41-7.44,2.75-10.31,2.75h-.23c-2.19,0-3.88-1.92-3.6-4.08l.27-2.19c.27-2.17-1.42-4.08-3.6-4.08h-7.45c-.9,0-1.62-.73-1.62-1.62s.73-1.62,1.62-1.62h11.97l.04-.3c.18-.4.29-.85.29-1.32,0-.18-.02-.36-.05-.53l.65-5.2h2.63c4.01,0,7.33.34,9.62,1.83,3.09,1.95,3.66,5.04,3.66,7.44,0,3.21-.8,6.53-3.89,8.93Z"/><path class="cls-1" d="m745.55,100.5c.2-1.65-1.09-3.11-2.75-3.11h-5.76c-.9,0-1.62-.73-1.62-1.62s.73-1.62,1.62-1.62h6.84c1.4,0,2.58-1.04,2.75-2.43l.9-7.31c-.23.12-.47.21-.75.21h-26.81c-1.4,0-2.58,1.04-2.75,2.43l-3.11,25.31c-.17,1.39-1.35,2.43-2.75,2.43h-15.57c-1.79,0-3.25,1.45-3.25,3.25,0,.74.26,1.42.68,1.96.27-.2.59-.34.95-.34h25.01c.9,0,1.62.73,1.62,1.62s-.73,1.62-1.62,1.62h-3.91c-1.4,0-2.58,1.04-2.75,2.43h0c-.17,1.39-1.35,2.43-2.75,2.43h-.98c-1.79,0-3.25,1.45-3.25,3.25,0,.74.26,1.42.68,1.96.27-.2.59-.34.95-.34h25.01c.9,0,1.62.73,1.62,1.62s-.73,1.62-1.62,1.62h-18.49c-1.4,0-2.58,1.04-2.75,2.43l-1.57,12.78c-.2,1.65,1.09,3.11,2.75,3.11h24.4c1.4,0,2.58-1.04,2.75-2.43l2.34-19.07c.3-.49.48-1.07.48-1.69,0-.33-.07-.65-.16-.96l3.63-29.56Z"/><path class="cls-1" d="m767.83,44.97c-.9,0-1.62-.73-1.62-1.62s.73-1.62,1.62-1.62h11.11c1.18,0,2.18-.88,2.33-2.06l1.56-12.69c.17-1.4-.92-2.63-2.33-2.63h-81.72c-1.18,0-2.18.88-2.33,2.06l-.15,1.19h-2c-1.79,0-3.25,1.45-3.25,3.25,0,.74.26,1.42.68,1.96.27-.2.59-.34.95-.34h10.71c.9,0,1.62.73,1.62,1.62h0c0,.9-.73,1.62-1.62,1.62h-6.01c-1.18,0-2.18.88-2.33,2.06l-1.14,9.26c-.17,1.4.92,2.63,2.33,2.63h22.93c1.41,0,2.5,1.23,2.33,2.63l-1.13,9.16c-.14,1.18-1.14,2.06-2.33,2.06h-31.52c-1.79,0-3.25,1.45-3.25,3.25h0c0,.74.26,1.42.68,1.96.27-.2.59-.34.95-.34h48.9c.9,0,1.62.73,1.62,1.62s-.73,1.62-1.62,1.62h-12.6c-1.18,0-2.18.88-2.33,2.06l-.09.75c-.14,1.18-1.14,2.06-2.33,2.06h-16.94c-1.79,0-3.25,1.45-3.25,3.25,0,.74.26,1.42.68,1.96.27-.2.59-.34.95-.34h48.9c.42,0,.78.17,1.07.42l.16-1.31c.06-.24.09-.48.09-.74,0,0,0,0,0,0l3.44-28.02c.14-1.18,1.14-2.06,2.33-2.06h24.08c1.18,0,2.18-.88,2.33-2.06h0c.17-1.4-.92-2.63-2.33-2.63h-10.13Zm-51.46-.86h-10.71c-.9,0-1.62-.73-1.62-1.62s.73-1.62,1.62-1.62h10.71c.9,0,1.62.73,1.62,1.62s-.73,1.62-1.62,1.62Z"/><path class="cls-1" d="m464.38,250.86h0c-.27,2.19,1.44,4.13,3.65,4.13h10.22c1.86,0,3.43-1.39,3.65-3.23h0c.27-2.19-1.44-4.12-3.65-4.12h-10.22c-1.86,0-3.42,1.39-3.65,3.23Z"/><path class="cls-1" d="m288.57,221.66c-2.36,0-4.4,1.49-5.31,3.67-1.22,2.91-2.85,5.42-4.76,7.38-5.61,5.73-11.91,6.53-17.06,6.53-4.23,0-8.94-.71-13.27-3.56-.96-.63-2.04-1.03-3.19-1.03h-9.53c-5.14,0-7.91,6.21-4.32,9.9.02.03.05.05.07.08,9.05,9.16,19.58,10.88,29.09,10.88s21.99-1.95,31.61-11.8c3.88-3.99,6.76-8.82,8.7-13.97,1.47-3.9-1.39-8.08-5.56-8.08h-6.46Zm-21.25,27.59h-14.28c-.9,0-1.62-.73-1.62-1.62s.73-1.62,1.62-1.62h14.28c.9,0,1.62.73,1.62,1.62s-.73,1.62-1.62,1.62Z"/><path class="cls-1" d="m443.7,217.76c2.51-2.51,4.45-5.9,5.48-10,.29-1.18-.58-2.34-1.8-2.34h-3.26c-.9,0-1.62-.73-1.62-1.62s.73-1.62,1.62-1.62h3.99c.74-.78,1.14-1.2,1.88-1.97-.19-7.42-2.95-12.09-5.49-14.74-5.73-6.18-12.94-6.87-20.27-6.87h-22.3c-.93,0-1.72.7-1.83,1.62h0c-.11.93-.9,1.62-1.83,1.62h-2.11c-1.79,0-3.25,1.45-3.25,3.25,0,.74.26,1.42.68,1.96.27-.2.59-.34.95-.34h14.28c.9,0,1.62.73,1.62,1.62h0c0,.9-.73,1.62-1.62,1.62h-8.28c-.93,0-1.72.7-1.83,1.62l-3.45,28.07c-.11.93-.9,1.62-1.83,1.62h-7.44c-1.79,0-3.25,1.45-3.25,3.25,0,.74.26,1.42.68,1.96.27-.2.59-.34.95-.34h16.71c.9,0,1.62.73,1.62,1.62s-.73,1.62-1.62,1.62h-5.38c-.93,0-1.72.7-1.83,1.62l-2.69,21.9c-.14,1.1.72,2.07,1.83,2.07h13.91c.93,0,1.72-.7,1.84-1.63l1.08-8.91c.13-1.1-.73-2.07-1.84-2.07h-10.65c-.9,0-1.62-.73-1.62-1.62s.73-1.62,1.62-1.62h11.5c.93,0,1.72-.7,1.84-1.63l.9-7.37c.21-1.74,2.5-2.24,3.41-.74l9.71,15.86h-3.47c-1.79,0-3.25,1.45-3.25,3.25,0,.74.26,1.42.68,1.96.27-.2.59-.34.95-.34h14.28c.9,0,1.62.73,1.62,1.62s-.73,1.62-1.62,1.62h-4.23l.99,1.62h17.25c1.46,0,2.34-1.61,1.56-2.84l-16.53-26.04c-.66-1.03-.15-2.39,1.02-2.74,3.51-1.06,7.04-2.99,9.75-5.6Zm-15.46-7.22c-3.09,2.41-7.44,2.75-10.31,2.75h-2.26c-1.11,0-1.97-.98-1.83-2.08l.78-6.2c.14-1.1-.72-2.08-1.83-2.08h-5.27c-.9,0-1.62-.73-1.62-1.62s.73-1.62,1.62-1.62h6.15c.93,0,1.72-.69,1.83-1.62l.72-5.74h2.63c4.01,0,7.33.34,9.62,1.83,3.09,1.95,3.66,5.04,3.66,7.44,0,3.21-.8,6.53-3.89,8.93Z"/><path class="cls-1" d="m360.82,220.67l-.15,1.21c-.57,4.35-1.37,10.77-5.15,14.54-1.95,1.95-5.5,3.78-11.22,3.78-4.7,0-8.02-1.49-10.08-3.44-2.86-2.86-3.32-6.76-3.32-9.85s.23-4.24.57-6.64l.08-.63h-5.84c-.9,0-1.62-.73-1.62-1.62s.73-1.62,1.62-1.62h0c3.56,0,6.55-2.66,6.98-6.19l2.87-23.75c.51-4.19-2.76-7.87-6.98-7.87h-3.48c-3.55,0-6.55,2.65-6.98,6.18l-4.17,34.36c-.34,3.09-.92,8.59-.92,12.03,0,2.6.26,5.03.83,7.29,1.1,4.39-2.32,8.61-6.84,8.61h-6.59c-1.79,0-3.25,1.45-3.25,3.25,0,.74.26,1.42.68,1.96.27-.2.59-.34.95-.34h45.96c.9,0,1.62.73,1.62,1.62s-.73,1.62-1.62,1.62h-13.79c4.44,1.26,8.99,1.52,12.97,1.52,6.3,0,17.41-.34,25.08-8.25,6.87-6.99,7.9-16.26,9.05-25.42l.29-2.36h-17.55Z"/><path class="cls-1" d="m510.65,245.44c-.9,0-1.62-.73-1.62-1.62s.73-1.62,1.62-1.62h0c2.37,0,3.8-2.61,2.53-4.61l-6.49-10.23c-1.02-1.61-.32-3.76,1.47-4.4,3.09-1.11,6.12-2.88,8.51-5.18,3.78-3.78,6.3-9.51,6.3-16.72,0-7.9-2.86-12.83-5.5-15.58-5.73-6.18-12.94-6.87-20.27-6.87h-22.3c-.93,0-1.72.7-1.83,1.62h0c-.11.93-.9,1.62-1.83,1.62h-13.02c-1.79,0-3.25,1.45-3.25,3.25,0,.74.26,1.42.68,1.96.27-.2.59-.34.95-.34h26.3c.9,0,1.62.73,1.62,1.62h0c0,.9-.73,1.62-1.62,1.62h-8.35c-1.52,0-2.79,1.13-2.98,2.64l-.33,2.65c-.11.92-.61,1.81-1.45,2.21-1.08.52-1.82,1.62-1.82,2.91,0,.18.06.35.09.53.19-.68.79-1.19,1.54-1.19h16.04c1.51,0,2.79-1.13,2.98-2.63l.59-4.73h2.63c4.01,0,7.33.34,9.62,1.83,3.09,1.95,3.66,5.04,3.66,7.44,0,3.21-.8,6.53-3.89,8.93-3.09,2.41-7.44,2.75-10.31,2.75h-.95c-1.81,0-3.2-1.58-2.98-3.38l.45-3.6c.23-1.79-1.17-3.38-2.98-3.38h-14.88c-.14,0-.26-.05-.39-.08.31.25.65.46,1.04.58l-1.03,8.36c-.22,1.79,1.18,3.37,2.98,3.37h1.51c.9,0,1.62.73,1.62,1.62s-.73,1.62-1.62,1.62h-2.65c-1.52,0-2.79,1.13-2.98,2.64l-.35,2.84c-.19,1.5-1.46,2.64-2.98,2.64h-14.78c-1.79,0-3.25,1.45-3.25,3.25,0,.74.26,1.42.68,1.96.27-.2.59-.34.95-.34h22.14c.9,0,1.62.73,1.62,1.62s-.73,1.62-1.62,1.62h-1.42c-1.52,0-2.79,1.13-2.98,2.64l-.27,2.23h-2.86c-1.79,0-3.25,1.45-3.25,3.25,0,.74.26,1.42.68,1.96.27-.2.59-.34.95-.34h18.84c1.52,0,2.8-1.13,2.98-2.64l1.01-8.32c.34-2.82,4.06-3.63,5.54-1.2l13.06,21.34c.55.89,1.52,1.43,2.56,1.43h13.47c2.37,0,3.8-2.61,2.53-4.61l-2.25-3.54c-.55-.87-1.51-1.39-2.53-1.39h-5.87Z"/><path class="cls-1" d="m207.48,233.53c-4.16,3.08-9.79,5.75-16.69,5.75s-12.71-2.52-16.15-5.96c-1.4-1.4-2.63-3.21-3.62-5.28-.17.06-.34.11-.53.11h-13.97c-2.6,0-4.38,2.6-3.49,5.04.51,1.39,1.08,2.68,1.7,3.89,1.27,2.48-.51,5.4-3.3,5.4h-9.73c-1.79,0-3.25,1.45-3.25,3.25,0,.74.26,1.42.68,1.96.27-.2.59-.34.95-.34h33.3c.9,0,1.62.73,1.62,1.62s-.73,1.62-1.62,1.62h-5.86c4.72,2.78,11.32,5.18,20.3,5.18,7.87,0,13.4-1.83,16.59-3.21,1.22-.53,2.05-1.65,2.21-2.97h0c.27-2.21-1.46-4.16-3.69-4.16h-2.65c-.9,0-1.62-.73-1.62-1.62s.73-1.62,1.62-1.62h3.94c1.88,0,3.46-1.4,3.69-3.27"/></svg>